<svg xmlns="http://www.w3.org/2000/svg" height="40" viewBox="0 -960 960 960" width="40"><path d="M138.825-222.289q-18.5 0-31.286-12.82-12.787-12.82-12.787-31.37t12.787-31.253q12.786-12.703 31.286-12.703h453.334q18.5 0 31.286 12.82 12.787 12.82 12.787 31.37t-12.787 31.253q-12.786 12.703-31.286 12.703H138.825Zm0-214.972q-18.5 0-31.286-12.82-12.787-12.82-12.787-31.369 0-18.55 12.787-31.253 12.786-12.703 31.286-12.703h333.334q18.5 0 31.286 12.82 12.787 12.82 12.787 31.37 0 18.549-12.787 31.252-12.786 12.703-31.286 12.703H138.825Zm0-212.304q-18.5 0-31.286-12.82-12.787-12.82-12.787-31.37t12.787-31.441q12.786-12.892 31.286-12.892h453.334q18.5 0 31.286 13.009 12.787 13.008 12.787 31.558t-12.787 31.253q-12.786 12.703-31.286 12.703H138.825Zm582.133 168.898 114.463 114.464q12.87 12.87 12.537 30.87-.334 18-13.203 30.869-13.247 12.87-31.392 12.87t-31.015-12.87L627.015-449.797Q614-462.811 614-480.667q0-17.855 13.015-30.869L772.348-656.87q12.87-12.87 31.015-12.87 18.145 0 31.392 12.87 12.869 12.87 12.869 31.203 0 18.334-12.869 31.203L720.958-480.667Z"/></svg>