<svg xmlns="http://www.w3.org/2000/svg" height="40" viewBox="0 -960 960 960" width="40"><path d="M153.333-222.289q-18.5 0-31.286-12.82-12.787-12.82-12.787-31.37t12.787-31.253q12.786-12.703 31.286-12.703h653.334q18.5 0 31.286 12.82 12.787 12.82 12.787 31.37t-12.787 31.253q-12.786 12.703-31.286 12.703H153.333Zm0-213.638q-18.5 0-31.286-12.82-12.787-12.82-12.787-31.37t12.787-31.253q12.786-12.703 31.286-12.703h653.334q18.5 0 31.286 12.82 12.787 12.82 12.787 31.37t-12.787 31.253q-12.786 12.703-31.286 12.703H153.333Zm0-213.638q-18.5 0-31.286-12.82-12.787-12.82-12.787-31.37t12.787-31.441q12.786-12.892 31.286-12.892h653.334q18.5 0 31.286 13.009 12.787 13.008 12.787 31.558t-12.787 31.253q-12.786 12.703-31.286 12.703H153.333Z"/></svg>