<svg xmlns="http://www.w3.org/2000/svg" height="40" viewBox="0 -960 960 960" width="40"><path d="M523.889-30.58q-85.863 0-161.073-32.744-75.211-32.745-130.979-88.513-55.768-55.768-88.513-130.979-32.745-75.21-32.745-161.072 0-151.932 97.711-266.74Q306-825.435 454.899-852.624q-14.044 100.218 13.449 196.503 27.493 96.286 99.435 167.919 71.188 71.632 167.478 98.682 96.29 27.049 196.609 16.192-26 148.47-141.023 245.609-115.024 97.14-266.958 97.14Zm.111-88.522q87.71 0 161.442-46.449Q759.174-212 806.275-286.913q-84.898-10.638-162.695-44.993-77.798-34.355-138.203-94.804-60.783-60.072-94.971-137.254-34.189-77.181-45.058-161.412-74.159 46.333-120.203 119.999Q199.102-531.71 199.102-444q0 135.845 94.526 230.372Q388.155-119.102 524-119.102ZM505.043-426.71Z"/></svg>