<svg xmlns="http://www.w3.org/2000/svg" height="24" viewBox="0 -960 960 960" width="24"><path d="M524-80q-75.608 0-141.766-28.538-66.157-28.539-115.657-78.039t-78.039-115.657Q160-368.392 160-444q0-116.769 67.231-210.577 67.231-93.808 177.385-130.808-4.154 93.615 28.692 180.039 32.846 86.423 99.231 152.807 66.384 66.385 152.807 99.231 86.424 32.846 180.039 28.692-36.769 110.154-130.692 177.385Q640.769-80 524-80Zm0-40q88 0 163-44t118-121.213q-86-8.022-163-43.62-77-35.599-138-96.767-61-61.169-97-137.785Q371-640 364-726q-77 43-120.5 118.5T200-444q0 135 94.5 229.5T524-120Zm-20-305.769Z"/></svg>