<svg xmlns="http://www.w3.org/2000/svg" height="40" viewBox="0 -960 960 960" width="40"><path d="M479.883-799.696q-18.55 0-31.253-12.786t-12.703-31.286v-46.667q0-18.5 12.82-31.287 12.82-12.786 31.37-12.786t31.253 12.786q12.703 12.787 12.703 31.287v46.667q0 18.5-12.82 31.286-12.82 12.786-31.37 12.786Zm0 774.204q-18.55 0-31.253-12.786-12.703-12.787-12.703-31.287v-46.667q0-18.5 12.82-31.286 12.82-12.786 31.37-12.786t31.253 12.786q12.703 12.786 12.703 31.286v46.667q0 18.5-12.82 31.287-12.82 12.786-31.37 12.786Zm363.885-410.435q-18.5 0-31.286-12.82-12.786-12.82-12.786-31.37t12.786-31.253q12.786-12.703 31.286-12.703h46.667q18.5 0 31.287 12.82 12.786 12.82 12.786 31.37t-12.786 31.253q-12.787 12.703-31.287 12.703h-46.667Zm-774.203 0q-18.5 0-31.287-12.82-12.786-12.82-12.786-31.37t12.786-31.253q12.787-12.703 31.287-12.703h46.667q18.5 0 31.286 12.82 12.786 12.82 12.786 31.37t-12.786 31.253q-12.786 12.703-31.286 12.703H69.565ZM715.58-716.246q-12.87-12.668-12.776-30.769.094-18.101 12.776-31.637l20-20.334q12.203-12.536 30.869-12.87 18.667-.333 31.87 12.87t13.087 31.703q-.116 18.5-13.087 31.37l-21 20.667q-12.935 12.014-31.018 12.014-18.084 0-30.721-13.014ZM162.347-161.681q-13.203-13.203-13.369-32.08-.167-18.877 13.369-31.558l20.334-20q12.58-12.015 31.268-12.348 18.689-.333 31.964 12.824 12.609 12.501 12.515 31.063-.094 18.563-12.776 31.766l-20.666 21q-12.059 12.536-30.748 12.536-18.688 0-31.891-13.203Zm572.899 0-21.232-20.333q-12.014-12.58-12.348-31.269-.333-18.688 12.824-31.964 12.501-12.608 31.064-12.514 18.562.094 31.765 12.775l21 20.667q12.537 12.015 12.87 30.725.333 18.71-12.87 31.913t-31.986 13.37q-18.782.167-31.087-13.37ZM182.681-716.246l-21-19.435q-12.537-12.203-12.87-31.152-.333-18.95 12.87-32.153t31.703-13.087q18.5.116 31.37 13.087l20.667 21q12.014 12.769 12.63 31.03.616 18.261-12.399 31.275-12.668 12.87-31.051 12.493-18.384-.377-31.92-13.058ZM479.882-250Q384-250 317-317.118q-67-67.117-67-163Q250-576 317.118-643q67.117-67 163-67Q576-710 643-642.882q67 67.117 67 163Q710-384 642.882-317q-67.117 67-163 67Zm.074-88.523q59.522 0 100.71-40.955 41.188-40.956 41.188-100.478 0-59.522-41.144-100.71-41.144-41.188-100.666-41.188T379.522-580.71q-40.999 41.144-40.999 100.666t40.955 100.522q40.956 40.999 100.478 40.999ZM480-480Z"/></svg>